<svg width="32" height="32" viewBox="0 0 40 40" fill="none" xmlns="http://www.w3.org/2000/svg">
  <defs>
    <linearGradient id="navGrad" x1="20" y1="0" x2="20" y2="40" gradientUnits="userSpaceOnUse">
      <stop stop-color="#8DBBAF" />
      <stop offset="1" stop-color="#3D887D" />
    </linearGradient>
  </defs>
  <path
    d="M17.623 24.7539C18.9357 23.4411 21.0643 23.4411 22.377 24.7539L27.1309 29.5078C28.4435 30.8206 28.4435 32.9489 27.1309 34.2617L22.377 39.0156C21.0643 40.3283 18.9357 40.3283 17.623 39.0156L12.8691 34.2617C11.5565 32.949 11.5566 30.8206 12.8691 29.5078L17.623 24.7539ZM5.73828 12.8691C7.05098 11.5565 9.17942 11.5566 10.4922 12.8691L15.2461 17.623C16.5589 18.9357 16.5589 21.0643 15.2461 22.377L10.4922 27.1309C9.17942 28.4435 7.05101 28.4435 5.73828 27.1309L0.984375 22.377C-0.328252 21.0643 -0.328313 18.9357 0.984375 17.623L5.73828 12.8691ZM29.5078 12.8691C30.8206 11.5566 32.949 11.5565 34.2617 12.8691L39.0156 17.623C40.3283 18.9357 40.3283 21.0643 39.0156 22.377L34.2617 27.1309C32.9489 28.4435 30.8206 28.4435 29.5078 27.1309L24.7539 22.377C23.4411 21.0643 23.4411 18.9357 24.7539 17.623L29.5078 12.8691ZM17.623 0.984375C18.9357 -0.328316 21.0643 -0.328255 22.377 0.984375L27.1309 5.73828C28.4435 7.05105 28.4435 9.17938 27.1309 10.4922L22.377 15.2461C21.0643 16.5589 18.9357 16.5589 17.623 15.2461L12.8691 10.4922C11.5566 9.17938 11.5565 7.05102 12.8691 5.73828L17.623 0.984375Z"
    fill="url(#navGrad)"
  />
</svg>
